<svg xmlns="http://www.w3.org/2000/svg" viewBox="0 0 163.74 62.9"><defs><style>.cls-1{fill:#fff;}</style></defs><title>Artboard 8</title><g id="Layer_6" data-name="Layer 6"><polygon class="cls-1" points="36.39 34.95 36.39 62.9 54.58 62.9 54.58 20.97 36.39 34.95"/><polygon points="54.58 20.97 54.58 62.9 72.77 62.9 72.77 6.99 54.58 20.97"/><polygon class="cls-1" points="0 62.9 18.19 62.9 18.19 48.92 0 62.9"/><polygon points="18.19 48.92 18.19 62.9 36.39 62.9 36.39 34.95 18.19 48.92"/><polygon class="cls-1" points="81.87 0 72.77 6.99 72.77 62.9 90.96 62.9 90.96 6.99 81.87 0"/><polygon points="90.96 6.99 90.96 62.9 109.16 62.9 109.16 20.97 90.96 6.99"/><polygon class="cls-1" points="109.16 20.97 109.16 62.9 127.35 62.9 127.35 34.95 109.16 20.97"/><polygon points="127.35 34.95 127.35 62.9 145.54 62.9 145.54 48.92 127.35 34.95"/><polygon class="cls-1" points="145.54 62.9 163.74 62.9 145.54 48.92 145.54 62.9"/></g></svg>