<svg xmlns="http://www.w3.org/2000/svg" viewBox="0 0 500 500"><defs><style>.cls-1{fill:#e4db00;}.cls-2{fill:#ff5d00;}.cls-3{fill:#e5a200;}.cls-4{fill:#ff729a;}.cls-5{fill:#042;}</style></defs><title>Artboard 1 copy 4</title><g id="Layer_5" data-name="Layer 5"><rect class="cls-1" width="500" height="500"/><rect class="cls-1" width="500" height="500"/><rect class="cls-1" width="500" height="500"/><rect class="cls-1" width="500" height="500"/><rect class="cls-1" width="500" height="500"/><rect class="cls-2" width="500" height="500"/></g><g id="Layer_6" data-name="Layer 6"><path class="cls-3" d="M463,250c0-117.64-95.36-213-213-213S37,132.36,37,250H90.25a159.75,159.75,0,0,1,319.5,0Z"/><path class="cls-1" d="M143.5,250a106.5,106.5,0,0,1,213,0h53.25a159.75,159.75,0,0,0-319.5,0Z"/><path class="cls-4" d="M194.62,250a55.38,55.38,0,0,1,110.76,0H356.5a106.5,106.5,0,0,0-213,0Z"/><path class="cls-2" d="M228.7,250a21.3,21.3,0,0,1,42.6,0h34.08a55.38,55.38,0,0,0-110.76,0Z"/><path class="cls-1" d="M271.3,250a21.3,21.3,0,0,0-42.6,0Z"/><path class="cls-5" d="M463,250c0,117.64-95.36,213-213,213S37,367.64,37,250Z"/></g></svg>