<svg xmlns="http://www.w3.org/2000/svg" viewBox="0 0 500 500"><defs><style>.cls-1,.cls-6{fill:#e4db00;}.cls-2{fill:#042;}.cls-3{fill:#e5a200;}.cls-4{fill:#ff729a;}.cls-5{fill:#ff5d00;}.cls-13,.cls-6{font-size:23px;font-family:SourceHanSansTC-Bold-B5pc-H, Source Han Sans TC;}.cls-7{letter-spacing:0.1em;}.cls-10,.cls-11,.cls-12,.cls-8,.cls-9{font-size:28.83px;}.cls-10,.cls-11,.cls-12,.cls-14,.cls-8,.cls-9{font-family:Barlow-Bold, Barlow;font-weight:700;}.cls-9{letter-spacing:-0.01em;}.cls-10{letter-spacing:-0.08em;}.cls-11{letter-spacing:-0.01em;}.cls-12{letter-spacing:-0.01em;}.cls-13{fill:#fff;}.cls-15{letter-spacing:-0.01em;}.cls-16{letter-spacing:-0.03em;}.cls-17{letter-spacing:-0.01em;}.cls-18{letter-spacing:-0.01em;}.cls-19{letter-spacing:-0.01em;}.cls-20{letter-spacing:0em;}.cls-21{letter-spacing:-0.01em;}.cls-22{letter-spacing:-0.03em;}.cls-23{letter-spacing:0em;}.cls-24{letter-spacing:-0.01em;}.cls-25{letter-spacing:-0.01em;}.cls-26{letter-spacing:-0.05em;}.cls-27{letter-spacing:-0.01em;}</style></defs><title>Artboard 1 copy</title><g id="Layer_5" data-name="Layer 5"><rect class="cls-1" width="500" height="500"/><rect class="cls-1" width="500" height="500"/><rect class="cls-1" width="500" height="500"/><rect class="cls-1" width="500" height="500"/><rect class="cls-1" width="500" height="500"/><rect class="cls-2" width="500" height="500"/></g><g id="Layer_6" data-name="Layer 6"><path class="cls-3" d="M463,498.77c0-117.64-95.36-213-213-213s-213,95.36-213,213H90.25a159.75,159.75,0,0,1,319.5,0Z"/><path class="cls-1" d="M143.5,498.77a106.5,106.5,0,0,1,213,0h53.25a159.75,159.75,0,0,0-319.5,0Z"/><path class="cls-4" d="M194.62,498.77a55.38,55.38,0,0,1,110.76,0H356.5a106.5,106.5,0,0,0-213,0Z"/><path class="cls-5" d="M228.7,498.77a21.3,21.3,0,0,1,42.6,0h34.08a55.38,55.38,0,0,0-110.76,0Z"/><path class="cls-1" d="M271.3,498.77a21.3,21.3,0,0,0-42.6,0Z"/><text class="cls-6" transform="translate(141.87 242.66)"><tspan class="cls-7">一起圖 </tspan><tspan class="cls-8" x="83.42" y="0">L</tspan><tspan class="cls-9" x="99.91" y="0">e</tspan><tspan class="cls-8" x="115.31" y="0">t</tspan><tspan class="cls-10" x="126.26" y="0">’</tspan><tspan class="cls-8" x="129.95" y="0">s D</tspan><tspan class="cls-11" x="168.01" y="0">r</tspan><tspan class="cls-12" x="178.88" y="0">a</tspan><tspan class="cls-8" x="193.7" y="0">w</tspan></text><text class="cls-13" transform="translate(36.73 67.62)"><tspan class="cls-7">假字假字假字假字假字假字假字假字<tspan x="0" y="27.6">假字假字假字假字假字假字</tspan></tspan><tspan class="cls-14"><tspan x="0" y="64.2">Pl</tspan><tspan class="cls-15" x="19.34" y="64.2">a</tspan><tspan class="cls-16" x="31.16" y="64.2">y</tspan><tspan x="42" y="64.2">e</tspan><tspan class="cls-17" x="54.55" y="64.2">r</tspan><tspan x="63.18" y="64.2">s </tspan><tspan class="cls-18" x="79.32" y="64.2">c</tspan><tspan x="91.54" y="64.2">ould f</tspan><tspan class="cls-19" x="149.01" y="64.2">r</tspan><tspan x="157.52" y="64.2">eely pick a</tspan><tspan class="cls-20" x="264.72" y="64.2">n</tspan><tspan x="277.23" y="64.2">d d</tspan><tspan class="cls-21" x="307.87" y="64.2">r</tspan><tspan x="316.54" y="64.2">ag t</tspan><tspan class="cls-20" x="354.81" y="64.2">h</tspan><tspan x="367.32" y="64.2">e </tspan><tspan x="0" y="91.8">p</tspan><tspan class="cls-19" x="13.06" y="91.8">r</tspan><tspan class="cls-22" x="21.57" y="91.8">o</tspan><tspan x="33.74" y="91.8">vided geo</tspan><tspan class="cls-23" x="132.91" y="91.8">m</tspan><tspan class="cls-24" x="152.05" y="91.8">e</tspan><tspan x="164.33" y="91.8">tri</tspan><tspan class="cls-25" x="187.75" y="91.8">e</tspan><tspan x="200.14" y="91.8">s a</tspan><tspan class="cls-20" x="228.43" y="91.8">n</tspan><tspan x="240.94" y="91.8">d ma</tspan><tspan class="cls-26" x="289.91" y="91.8">k</tspan><tspan x="301.11" y="91.8">e a </tspan><tspan class="cls-21" x="335.01" y="91.8">c</tspan><tspan x="347.22" y="91.8">ollage </tspan><tspan class="cls-15" x="0" y="119.4">o</tspan><tspan x="12.49" y="119.4">f t</tspan><tspan class="cls-20" x="34.73" y="119.4">h</tspan><tspan x="47.24" y="119.4">eir </tspan><tspan class="cls-22" x="79.07" y="119.4">o</tspan><tspan x="91.24" y="119.4">w</tspan><tspan class="cls-27" x="109.25" y="119.4">n</tspan><tspan x="121.64" y="119.4">...</tspan></tspan></text></g></svg>