<svg xmlns="http://www.w3.org/2000/svg" viewBox="0 0 500 500"><defs><style>.cls-1{fill:#e4db00;}.cls-2{fill:#ff5d00;}.cls-3{fill:#e5a200;}.cls-4{fill:#ff729a;}.cls-5{fill:#042;}.cls-6{fill:#fff;}.cls-7{fill:#7f7f7f;}.cls-8{fill:#e51600;}.cls-9{fill:#ff0;}</style></defs><title>Artboard 1</title><g id="Layer_5" data-name="Layer 5"><rect class="cls-1" width="500" height="500"/><rect class="cls-1" width="500" height="500"/><rect class="cls-1" width="500" height="500"/><rect class="cls-1" width="500" height="500"/><rect class="cls-1" width="500" height="500"/><rect class="cls-2" width="500" height="500"/></g><g id="Layer_6" data-name="Layer 6"><path class="cls-3" d="M463,250c0-117.64-95.36-213-213-213S37,132.36,37,250H90.25a159.75,159.75,0,0,1,319.5,0Z"/><path class="cls-1" d="M143.5,250a106.5,106.5,0,0,1,213,0h53.25a159.75,159.75,0,0,0-319.5,0Z"/><path class="cls-4" d="M194.62,250a55.38,55.38,0,0,1,110.76,0H356.5a106.5,106.5,0,0,0-213,0Z"/><path class="cls-2" d="M228.7,250a21.3,21.3,0,0,1,42.6,0h34.08a55.38,55.38,0,0,0-110.76,0Z"/><path class="cls-1" d="M271.3,250a21.3,21.3,0,0,0-42.6,0Z"/><path class="cls-5" d="M463,250c0,117.64-95.36,213-213,213S37,367.64,37,250Z"/><rect x="176.18" y="144.52" width="20.17" height="3.91"/><rect x="176.18" y="148.43" width="2.11" height="7.5"/><rect x="182.2" y="148.43" width="2.11" height="7.5"/><rect x="188.23" y="148.43" width="2.11" height="7.5"/><rect x="183.46" y="115.82" width="5.61" height="8.96"/><rect x="185.29" y="102.44" width="1.96" height="13.39"/><rect x="194.25" y="148.43" width="2.11" height="7.5"/><rect x="178.62" y="124.79" width="15.31" height="19.73"/><rect class="cls-6" x="180.28" y="128.4" width="3.65" height="11.95"/><rect class="cls-6" x="188.61" y="128.4" width="3.65" height="11.95"/><rect x="296.45" y="144.52" width="20.17" height="3.91"/><rect x="296.45" y="148.43" width="2.11" height="7.5"/><rect x="302.47" y="148.43" width="2.11" height="7.5"/><rect x="308.49" y="148.43" width="2.11" height="7.5"/><rect x="303.73" y="115.82" width="5.61" height="8.96"/><rect x="305.55" y="102.44" width="1.96" height="13.39"/><rect x="314.51" y="148.43" width="2.11" height="7.5"/><rect x="298.88" y="124.79" width="15.31" height="19.73"/><rect class="cls-6" x="300.54" y="128.4" width="3.65" height="11.95"/><rect class="cls-6" x="308.87" y="128.4" width="3.65" height="11.95"/><polygon class="cls-6" points="205.64 74.51 205.64 102.47 223.83 102.47 223.83 60.54 205.64 74.51"/><polygon points="223.83 60.54 223.83 102.47 242.03 102.47 242.03 46.56 223.83 60.54"/><polygon class="cls-6" points="169.25 102.47 187.45 102.47 187.45 88.49 169.25 102.47"/><polygon points="187.45 88.49 187.45 102.47 205.64 102.47 205.64 74.51 187.45 88.49"/><polygon class="cls-6" points="251.12 39.57 242.03 46.56 242.03 102.47 260.22 102.47 260.22 46.56 251.12 39.57"/><polygon points="260.22 46.56 260.22 102.47 278.41 102.47 278.41 60.54 260.22 46.56"/><polygon class="cls-6" points="278.41 60.54 278.41 102.47 296.6 102.47 296.6 74.51 278.41 60.54"/><polygon points="296.6 74.51 296.6 102.47 314.8 102.47 314.8 88.49 296.6 74.51"/><polygon class="cls-6" points="314.8 102.47 332.99 102.47 314.8 88.49 314.8 102.47"/><rect x="198.29" y="175" width="103.06" height="75.05"/><rect x="147.39" y="201.09" width="50.9" height="14.75"/><rect x="301.35" y="201.09" width="50.9" height="14.75"/><rect x="147.39" y="215.84" width="17.8" height="17.8"/><rect x="176.42" y="215.84" width="17.8" height="17.8"/><rect x="161.9" y="183.29" width="17.8" height="17.8"/><rect x="319.93" y="183.29" width="17.8" height="17.8"/><rect x="305.42" y="215.84" width="17.8" height="17.8"/><rect x="334.45" y="215.84" width="17.8" height="17.8"/><rect class="cls-7" x="209.91" y="427.34" width="80.19" height="41.62"/><rect class="cls-8" x="180.42" y="397.27" width="18.28" height="23.05" transform="translate(225.63 857.96) rotate(-159.72)"/><rect class="cls-8" x="123.35" y="376.18" width="18.28" height="23.05" transform="translate(122.35 797.3) rotate(-159.72)"/><rect class="cls-6" x="139.74" y="386.73" width="42.56" height="23.05" transform="translate(173.99 827.63) rotate(-159.72)"/><rect x="182.06" y="262.79" width="10.68" height="128.24" transform="translate(249.84 698.51) rotate(-159.72)"/><rect class="cls-8" x="301.31" y="397.27" width="18.28" height="23.05" transform="translate(-122.47 132.98) rotate(-20.28)"/><rect class="cls-8" x="358.37" y="376.18" width="18.28" height="23.05" transform="translate(-111.62 151.45) rotate(-20.28)"/><rect class="cls-6" x="317.7" y="386.73" width="42.56" height="23.05" transform="translate(-117.04 142.21) rotate(-20.28)"/><rect x="307.26" y="262.79" width="10.68" height="128.24" transform="translate(-93.95 128.65) rotate(-20.28)"/><rect class="cls-9" x="205.22" y="183.59" width="38.77" height="28.14"/><rect class="cls-9" x="255.65" y="183.59" width="38.77" height="28.14"/><rect class="cls-6" x="212.06" y="354.32" width="76.41" height="9.59"/><rect x="212.06" y="344.73" width="76.41" height="9.59"/><rect class="cls-6" x="212.06" y="335.14" width="76.41" height="9.59"/><rect x="212.06" y="325.55" width="76.41" height="9.59"/><rect class="cls-6" x="212.06" y="315.96" width="76.41" height="9.59"/><rect x="212.06" y="306.37" width="76.41" height="9.59"/><rect class="cls-6" x="212.06" y="296.78" width="76.41" height="9.59"/><rect x="212.06" y="287.19" width="19.24" height="9.59"/><rect class="cls-6" x="212.06" y="277.6" width="19.24" height="9.59"/><rect x="212.06" y="268.01" width="19.24" height="9.59"/><rect class="cls-6" x="212.06" y="258.42" width="19.24" height="9.59"/><rect x="212.06" y="248.83" width="19.24" height="9.59"/><rect x="269.23" y="287.19" width="19.24" height="9.59"/><rect class="cls-6" x="269.23" y="277.6" width="19.24" height="9.59"/><rect x="269.23" y="268.01" width="19.24" height="9.59"/><rect class="cls-6" x="269.23" y="258.42" width="19.24" height="9.59"/><rect x="269.23" y="248.83" width="19.24" height="9.59"/><rect x="221.43" y="364.39" width="20.98" height="62.95"/><rect x="257.58" y="364.39" width="20.98" height="62.95"/><rect x="191.52" y="134.99" width="72.52" height="7.49" transform="translate(366.52 -89.05) rotate(90)"/><rect class="cls-6" x="199.01" y="134.99" width="72.52" height="7.49" transform="translate(374.01 -96.54) rotate(90)"/><rect x="206.51" y="134.99" width="72.52" height="7.49" transform="translate(381.5 -104.04) rotate(90)"/><rect class="cls-6" x="214" y="134.99" width="72.52" height="7.49" transform="translate(389 -111.53) rotate(90)"/><rect x="221.49" y="134.99" width="72.52" height="7.49" transform="translate(396.49 -119.02) rotate(90)"/><rect class="cls-6" x="228.99" y="134.99" width="72.52" height="7.49" transform="translate(403.98 -126.52) rotate(90)"/><rect x="236.48" y="134.99" width="72.52" height="7.49" transform="translate(411.48 -134.01) rotate(90)"/></g></svg>